#!OML:ASF E:\Style4\Style4.ASF
:FULLY-SPECIFIED
:DEGREES
1449
root 1.11603 17.6256 -1.23219 11.2102 -29.4202 0.42699
lowerback 17.5624 -0.755098 -0.0145726
upperback 10.7821 -1.20546 2.75535
thorax 1.76985 -0.797366 3.10056
lowerneck 3.52518 -1.6706 -3.0926
upperneck -6.15449 -3.03473 -8.02081
head -2.67787 -1.2179 -1.95701
rclavicle 2.10712e-014 -3.49861e-014
rhumerus 22.9487 23.6748 -83.7439
rradius 78.6513
rwrist -72.4818
rhand -47.6226 25.9102
rfingers 7.12502
rthumb -20.3057 -3.04829
lclavicle 2.10712e-014 -3.49861e-014
lhumerus 51.6546 -36.4577 33.5919
lradius 84.2373
lwrist 84.4269
lhand -20.6436 52.1821
lfingers 7.12502
lthumb 5.71847 82.085
rfemur -36.3243 11.4073 12.9305
rtibia 35.7276
rfoot -11.082 -4.42768
rtoes -18.8206
lfemur -30.0491 17.5074 -25.5784
ltibia 40.5659
lfoot -26.0263 18.3988
ltoes -7.25166
1450
root 1.09277 17.621 -1.22376 11.1952 -29.5217 0.375248
lowerback 17.4105 -0.798732 -0.185101
upperback 10.8697 -1.29255 2.65188
thorax 1.94879 -0.848785 3.09618
lowerneck 3.52689 -1.53239 -3.16464
upperneck -6.18446 -2.84662 -7.91409
head -2.6786 -1.12418 -1.91558
rclavicle 2.70347e-014 3.18055e-015
rhumerus 21.9315 23.3248 -84.544
rradius 79.5114
rwrist -71.5811
rhand -47.4611 27.1095
rfingers 7.12502
rthumb -20.1505 -1.86544
lclavicle 2.70347e-014 3.18055e-015
lhumerus 50.6559 -36.995 35.6462
lradius 84.5906
lwrist 82.9675
lhand -20.4924 51.9233
lfingers 7.12502
lthumb 5.86446 81.8222
rfemur -36.3016 11.425 13.0796
rtibia 35.8758
rfoot -11.2435 -4.29279
rtoes -18.6239
lfemur -30.0229 17.6352 -25.4569
ltibia 40.762
lfoot -26.0801 18.3646
ltoes -7.06475
1451
root 1.07222 17.6141 -1.21467 11.3682 -29.4576 0.249738
lowerback 17.1611 -0.876662 -0.198582
upperback 10.8821 -1.39787 2.57798
thorax 2.09448 -0.899988 3.03475
lowerneck 3.50132 -1.4323 -3.15519
upperneck -6.15699 -2.7004 -7.8381
head -2.65862 -1.05506 -1.8968
rclavicle -1.90833e-014 -3.97569e-015
rhumerus 20.8714 22.829 -85.2687
rradius 80.4721
rwrist -70.4834
rhand -47.3117 27.5902
rfingers 7.12502
rthumb -20.0069 -1.39984
lclavicle -1.90833e-014 -3.97569e-015
lhumerus 49.6778 -37.6093 37.7785
lradius 85.0058
lwrist 81.3519
lhand -20.4689 51.7612
lfingers 7.12502
lthumb 5.88716 81.6594
rfemur -36.4272 11.3626 13.2662
rtibia 36.0354
rfoot -11.4058 -4.25534
rtoes -18.6408
lfemur -30.1958 17.5712 -25.289
ltibia 40.9557
lfoot -26.0946 18.3891
ltoes -7.15758
1452
root 1.05784 17.6051 -1.20639 11.549 -29.2687 0.178487
lowerback 16.9483 -1.15045 -0.467717
upperback 10.8174 -1.78719 2.7088
thorax 2.17133 -1.11222 3.37733
lowerneck 3.61747 -1.11595 -3.82142
upperneck -6.21071 -2.31665 -7.67681
head -2.67414 -0.848889 -1.74005
rclavicle -1.90833e-014 -4.13472e-014
rhumerus 19.8289 23.1323 -85.6283
rradius 81.5338
rwrist -69.4066
rhand -47.4828 27.4171
rfingers 7.12502
rthumb -20.1713 -1.55568
lclavicle -1.90833e-014 -4.13472e-014
lhumerus 47.6996 -37.8086 40.8246
lradius 85.4951
lwrist 79.5869
lhand -20.543 51.8157
lfingers 7.12502
lthumb 5.81558 81.7159
rfemur -36.582 11.1458 13.4104
rtibia 36.1632
rfoot -11.4498 -4.28488
rtoes -19.0873
lfemur -30.4399 17.3131 -25.1828
ltibia 41.1352
lfoot -26.0711 18.6144
ltoes -7.89359
1453
root 1.03604 17.6012 -1.19881 11.4437 -29.3822 0.199472
lowerback 17.0156 -1.21741 -0.795463
upperback 10.7909 -1.91638 2.64905
thorax 2.12582 -1.1909 3.52074
lowerneck 3.7689 -0.918905 -4.11223
upperneck -6.21221 -2.06738 -7.50964
head -2.68983 -0.719281 -1.64271
rclavicle -3.3197e-014 2.34566e-014
rhumerus 18.6467 23.0481 -86.1792
rradius 82.7194
rwrist -68.2567
rhand -47.6165 26.8525
rfingers 7.12502
rthumb -20.2999 -2.10665
lclavicle -3.3197e-014 2.34566e-014
lhumerus 46.1329 -38.2385 43.3417
lradius 86.1209
lwrist 77.9877
lhand -21.1363 51.7484
lfingers 7.12502
lthumb 5.24271 81.6636
rfemur -36.4798 11.1717 13.4864
rtibia 36.2308
rfoot -11.5277 -4.20479
rtoes -19.0853
lfemur -30.3532 17.4115 -25.1124
ltibia 41.2982
lfoot -26.1611 18.7519
ltoes -8.33071
1454
root 0.996914 17.6016 -1.19324 11.2673 -29.955 -0.00918453
lowerback 17.1637 -0.987899 -1.10668
upperback 10.904 -1.66854 2.49435
thorax 2.15921 -1.08226 3.49979
lowerneck 3.73278 -0.834563 -4.03229
upperneck -6.12749 -1.92611 -7.3626
head -2.64952 -0.658624 -1.61213
rclavicle 5.12864e-014 -1.15295e-014
rhumerus 17.5359 22.5222 -86.8311
rradius 83.9695
rwrist -67.0593
rhand -47.3469 25.8679
rfingers 7.12502
rthumb -20.0407 -3.1186
lclavicle 5.12864e-014 -1.15295e-014
lhumerus 45.1654 -38.9142 45.2506
lradius 86.7909
lwrist 76.3791
lhand -22.0176 51.2152
lfingers 7.12502
lthumb 4.39179 81.1496
rfemur -36.2146 11.7552 13.7654
rtibia 36.2915
rfoot -11.5961 -4.18541
rtoes -18.8365
lfemur -29.9733 18.1107 -24.7758
ltibia 41.4299
lfoot -26.3307 18.6067
ltoes -8.18909
1455
root 0.95712 17.6 -1.19126 11.1526 -30.7351 -0.338667
lowerback 17.3093 -0.648499 -1.40343
upperback 11.0335 -1.27931 2.3313
thorax 2.20008 -0.903242 3.44001
lowerneck 3.65759 -0.767096 -3.85438
upperneck -6.04897 -1.79996 -7.22354
head -2.60579 -0.607789 -1.60072
rclavicle -5.96354e-016 6.34123e-014
rhumerus 16.4224 21.8824 -87.4629
rradius 85.2472
rwrist -65.7569
rhand -47.0682 25.5285
rfingers 7.12502
rthumb -19.7728 -3.48575
lclavicle -5.96354e-016 6.34123e-014
lhumerus 44.3139 -39.5812 47.1091
lradius 87.4145
lwrist 74.166
lhand -22.0839 50.6749
lfingers 7.12502
lthumb 4.32779 80.6107
rfemur -35.9824 12.4248 14.1642
rtibia 36.3198
rfoot -11.5988 -4.06244
rtoes -18.7571
lfemur -29.5978 19.0405 -24.3673
ltibia 41.5698
lfoot -26.4631 18.5685
ltoes -8.58122
